<svg width="30" height="30" viewBox="0 0 30 30" fill="none" xmlns="http://www.w3.org/2000/svg">
<path d="M15 11.4129C14.2936 11.4132 13.6032 11.6226 13.0159 12.0147C12.4287 12.4068 11.9711 12.964 11.701 13.6159C11.4308 14.2677 11.3603 14.9849 11.4983 15.6767C11.6362 16.3686 11.9765 17.0041 12.4761 17.5028C12.9757 18.0015 13.6122 18.3411 14.305 18.4787C14.9978 18.6162 15.7159 18.5455 16.3685 18.2755C17.0211 18.0054 17.5789 17.5482 17.9713 16.9616C18.3638 16.3751 18.5732 15.6855 18.5732 14.98C18.5725 14.0339 18.1958 13.1268 17.5258 12.458C16.8558 11.7891 15.9473 11.4132 15 11.4129ZM23.3511 8.67101C23.1693 8.21081 22.8947 7.79282 22.5444 7.44299C22.1941 7.09316 21.7756 6.81894 21.3147 6.63734C19.9085 6.08295 16.5603 6.20734 15 6.20734C13.4397 6.20734 10.0949 6.07827 8.6846 6.63734C8.22378 6.81894 7.80524 7.09316 7.45494 7.44299C7.10464 7.79282 6.83005 8.21081 6.64821 8.67101C6.09375 10.0754 6.21763 13.4225 6.21763 14.9793C6.21763 16.5362 6.09375 19.8793 6.65089 21.2883C6.83273 21.7485 7.10732 22.1665 7.45761 22.5163C7.80791 22.8662 8.22646 23.1404 8.68728 23.322C10.0935 23.8764 13.4417 23.752 15.0027 23.752C16.5636 23.752 19.9071 23.8811 21.3174 23.322C21.7782 23.1404 22.1968 22.8662 22.5471 22.5163C22.8974 22.1665 23.172 21.7485 23.3538 21.2883C23.9129 19.8839 23.7844 16.5368 23.7844 14.98C23.7844 13.4231 23.9129 10.0807 23.3538 8.67168L23.3511 8.67101ZM15 20.4637C13.914 20.4637 12.8523 20.1421 11.9493 19.5396C11.0463 18.937 10.3425 18.0806 9.92691 17.0785C9.5113 16.0765 9.40256 14.9739 9.61444 13.9102C9.82631 12.8464 10.3493 11.8693 11.1172 11.1024C11.8852 10.3355 12.8636 9.81321 13.9287 9.60162C14.9939 9.39003 16.098 9.49862 17.1013 9.91368C18.1047 10.3287 18.9623 11.0316 19.5657 11.9334C20.169 12.8352 20.4911 13.8954 20.4911 14.98C20.492 15.7004 20.3505 16.4139 20.0749 17.0796C19.7992 17.7453 19.3948 18.3502 18.8847 18.8596C18.3747 19.3689 17.769 19.7728 17.1024 20.0481C16.4358 20.3234 15.7213 20.4646 15 20.4637ZM20.7174 10.5462C20.4639 10.5463 20.216 10.4714 20.0052 10.3308C19.7943 10.1902 19.6299 9.99037 19.5328 9.75649C19.4357 9.52262 19.4102 9.26523 19.4596 9.0169C19.509 8.76856 19.631 8.54042 19.8102 8.36135C19.9894 8.18227 20.2178 8.0603 20.4664 8.01086C20.7151 7.96141 20.9728 7.98672 21.2071 8.08358C21.4413 8.18044 21.6415 8.3445 21.7824 8.55501C21.9233 8.76551 21.9984 9.01301 21.9984 9.2662C21.9991 9.43433 21.9666 9.60095 21.9027 9.75649C21.8388 9.91204 21.7447 10.0535 21.626 10.1726C21.5072 10.2918 21.366 10.3864 21.2106 10.4509C21.0551 10.5155 20.8884 10.5488 20.7201 10.5489L20.7174 10.5462ZM26.7857 0H3.21429C2.3618 0 1.54424 0.338196 0.941442 0.940187C0.338647 1.54218 0 2.35865 0 3.21L0 26.75C0 27.6013 0.338647 28.4178 0.941442 29.0198C1.54424 29.6218 2.3618 29.96 3.21429 29.96H26.7857C27.6382 29.96 28.4558 29.6218 29.0586 29.0198C29.6614 28.4178 30 27.6013 30 26.75V3.21C30 2.35865 29.6614 1.54218 29.0586 0.940187C28.4558 0.338196 27.6382 0 26.7857 0ZM25.6393 19.3937C25.5529 21.1078 25.1612 22.6265 23.9083 23.8744C22.6554 25.1223 21.1359 25.5215 19.4217 25.6031C17.6531 25.7027 12.3509 25.7027 10.5824 25.6031C8.86607 25.5168 7.35067 25.1249 6.09576 23.8744C4.84085 22.6238 4.44643 21.1044 4.36473 19.3937C4.26496 17.6269 4.26496 12.3311 4.36473 10.5662C4.45112 8.85224 4.83817 7.33351 6.09576 6.08562C7.35335 4.83774 8.87277 4.44317 10.5824 4.36159C12.3509 4.26194 17.6531 4.26194 19.4217 4.36159C21.1379 4.44786 22.658 4.83974 23.9083 6.09031C25.1585 7.34087 25.5576 8.86027 25.6393 10.5743C25.7391 12.3344 25.7391 17.6256 25.6393 19.3937Z" fill="white" fill-opacity="0.9"/>
</svg>
