<svg width="30" height="30" viewBox="0 0 30 30" fill="none" xmlns="http://www.w3.org/2000/svg">
<path d="M25.5614 25.5277H21.1164V18.5757C21.1164 16.918 21.0867 14.7839 18.8045 14.7839C16.4893 14.7839 16.1351 16.5902 16.1351 18.4551V25.5273H11.6902V11.2312H15.9573V13.1849H16.0171C16.4441 12.4557 17.0612 11.8558 17.8026 11.4491C18.5441 11.0425 19.3821 10.8442 20.2274 10.8756C24.7327 10.8756 25.5633 13.835 25.5633 17.6851L25.5614 25.5277ZM6.67453 9.27714C5.24988 9.27737 4.09477 8.12415 4.09453 6.7014C4.0943 5.27865 5.24895 4.12507 6.67359 4.12484C8.09824 4.12449 9.25336 5.27771 9.25359 6.70046C9.25372 7.38369 8.98207 8.03899 8.4984 8.52221C8.01474 9.00543 7.35868 9.27698 6.67453 9.27714ZM8.89711 25.5279H4.44738V11.2312H8.89699L8.89711 25.5279ZM27.7774 0.00218051H2.21379C1.00559 -0.0113951 0.0147656 0.955166 0 2.16176V27.7978C0.0142969 29.005 1.005 29.9725 2.21367 29.9598H27.7774C28.9887 29.9748 29.9832 29.0073 30 27.7978V2.15977C29.9828 0.950836 28.9881 -0.0156082 27.7774 0.000190982" fill="white" fill-opacity="0.9"/>
</svg>
