<svg width="30" height="30" viewBox="0 0 30 30" fill="none" xmlns="http://www.w3.org/2000/svg">
<path d="M28.8 0H1.2C0.53625 0 0 0.535535 0 1.1984V28.7616C0 29.4245 0.53625 29.96 1.2 29.96H28.8C29.4638 29.96 30 29.4245 30 28.7616V1.1984C30 0.535535 29.4638 0 28.8 0ZM23.0737 10.8493C23.085 11.0253 23.085 11.2088 23.085 11.3885C23.085 16.8862 18.8925 23.219 11.2313 23.219C8.86875 23.219 6.67875 22.5337 4.83375 21.354C5.17125 21.3914 5.49375 21.4064 5.83875 21.4064C7.78875 21.4064 9.58125 20.7473 11.01 19.6313C9.18 19.5938 7.6425 18.3954 7.1175 16.7476C7.75875 16.8413 8.33625 16.8413 8.99625 16.6727C8.05397 16.4816 7.20703 15.9705 6.59931 15.2264C5.99159 14.4822 5.66057 13.5509 5.6625 12.5907V12.5383C6.21375 12.8491 6.8625 13.0401 7.54125 13.0663C6.97066 12.6865 6.50272 12.172 6.17892 11.5684C5.85512 10.9648 5.68546 10.2907 5.685 9.60593C5.685 8.83071 5.8875 8.1229 6.25125 7.50873C7.29713 8.79452 8.60224 9.84614 10.0817 10.5952C11.5612 11.3443 13.182 11.7741 14.8388 11.8567C14.25 9.0292 16.365 6.741 18.9075 6.741C20.1075 6.741 21.1875 7.24283 21.9487 8.05175C22.89 7.87574 23.79 7.5237 24.5925 7.05183C24.2812 8.0143 23.6288 8.82697 22.7625 9.34003C23.6025 9.25015 24.4125 9.01796 25.1625 8.69215C24.5963 9.52354 23.8875 10.2613 23.0737 10.8493Z" fill="white" fill-opacity="0.9"/>
</svg>
